# xmcd
#
# Track frame offsets: 
#        183
#        38800
#        76780
#        140843
#        192383
#        222793
#
# Disc length: 3749 seconds
#
# Revision: 2
# Processed by: cddbd v1.5.2PL0 Copyright (c) Steve Scherf et al.
# Submitted via: ExactAudioCopy v1.0b2
#
DISCID=500ea306
DTITLE=Ida Heandl - Berglund - Bournemouth SO - Britten and Walton  Vi
DTITLE=olin Concertos
DYEAR=1978
DGENRE=Classical
TTITLE0=Britten  Violin Concerto Op.15 -I- Moderato con moto
TTITLE1=Britten  Violin Concerto Op.15 -II- Vivace -
TTITLE2=Britten  Violin Concerto Op.15 -III- Passacaglia (Andante lent
TTITLE2=o - Un poco meno mosso)
TTITLE3=Walton  Violin Concerto in B minor -I- Andante tranquillo
TTITLE4=Walton  Violin Concerto in B minor -II- Presto capriccioso all
TTITLE4=a napolitana
TTITLE5=Walton  Violin Concerto in B minor -III- Vivace
EXTD=Benjamin Britten (1913-1976]\nViolin Concerto Op.15\n\nSir Willia
EXTD=m Walton (1902-1983]\nViolin Concerto in B minor\n\nIda Haendel, 
EXTD=violin\nBournemouth Symphony Orchestra\nPaavo Berglund\n\n@ by mo
EXTD=wa on 26-01-2012\n\n
EXTT0=
EXTT1=
EXTT2=
EXTT3=
EXTT4=
EXTT5=
PLAYORDER=
